HIERARCHY
ROOT Hips
{
	OFFSET 0.00000 0.00000 0.00000
	CHANNELS 6 Xposition Yposition Zposition Zrotation Yrotation Xrotation 
	JOINT LHipJoint
	{
		OFFSET 0 0 0
		CHANNELS 3 Zrotation Yrotation Xrotation
		JOINT LeftHip
		{
			OFFSET 1.29432 -1.88279 0.59910
			CHANNELS 3 Zrotation Yrotation Xrotation
			JOINT LeftKnee
			{
				OFFSET 2.63039 -7.22694 0.00000
				CHANNELS 3 Zrotation Yrotation Xrotation
				JOINT LeftAnkle
				{
					OFFSET 2.70674 -7.43672 0.00000
					CHANNELS 3 Zrotation Yrotation Xrotation
					JOINT LeftToe
					{
						OFFSET 0.15066 -0.41394 2.09027
						CHANNELS 3 Zrotation Yrotation Xrotation
						End Site
						{
							OFFSET 0.00000 -0.00000 1.07518
						}
					}
				}
			}
		}
	}
	JOINT RHipJoint
	{
		OFFSET 0 0 0
		CHANNELS 3 Zrotation Yrotation Xrotation
		JOINT RightHip
		{
			OFFSET -1.37068 -1.88279 0.59910
			CHANNELS 3 Zrotation Yrotation Xrotation
			JOINT RightKnee
			{
				OFFSET -2.57023 -7.06166 0.00000
				CHANNELS 3 Zrotation Yrotation Xrotation
				JOINT RightAnkle
				{
					OFFSET -2.76461 -7.59570 0.00000
					CHANNELS 3 Zrotation Yrotation Xrotation
					JOINT RightToe
					{
						OFFSET -0.24175 -0.64785 2.19719
						CHANNELS 3 Zrotation Yrotation Xrotation
						End Site
						{
							OFFSET -0.00000 -0.00000 1.14803
						}
					}
				}
			}
		}
	}
	JOINT lowerback
	{
		OFFSET 0 0 0
		CHANNELS 3 Zrotation Yrotation Xrotation
		JOINT Chest
		{
			OFFSET -0.03138 2.03983 -0.23106
			CHANNELS 3 Zrotation Yrotation Xrotation
			JOINT Chest2
			{
				OFFSET -0.00325 2.06238 -0.06878
				CHANNELS 3 Zrotation Yrotation Xrotation
				JOINT lowerneck
				{
					OFFSET 0 0 0
					CHANNELS 3 Zrotation Yrotation Xrotation
					JOINT Neck
					{
						OFFSET -0.00002 1.75318 0.18090
						CHANNELS 3 Zrotation Yrotation Xrotation
						JOINT Head
						{
							OFFSET 0.08806 1.75856 -0.25387
							CHANNELS 3 Zrotation Yrotation Xrotation
							End Site
							{
								OFFSET 0.02554 1.78597 -0.10684
							}
						}
					}
				}
				JOINT LeftCollar
				{
					OFFSET 0 0 0
					CHANNELS 3 Zrotation Yrotation Xrotation
					JOINT LeftShoulder
					{
						OFFSET 3.09657 1.33597 -0.04414
CHANNELS 3 Zrotation Xrotation Yrotation
						JOINT LeftElbow
						{
OFFSET 0 -5.342980 -0.000000
CHANNELS 3 Zrotation Xrotation Yrotation
							JOINT LeftWrist
							{
OFFSET 0 -3.672620 -0.000000
CHANNELS 3 Zrotation Xrotation Yrotation
								JOINT lhand
								{
									OFFSET 0 0 0
CHANNELS 3 Zrotation Xrotation Yrotation
									JOINT LFingers
									{
OFFSET 0 -0.599300 -0.000000
CHANNELS 3 Zrotation Xrotation Yrotation
										End Site
										{
OFFSET 0 -0.483170 -0.000000
										}
									}
								}
								JOINT LThumb
								{
OFFSET 0 0.000000 0.000000
CHANNELS 3 Zrotation Xrotation Yrotation
									End Site
									{
OFFSET 0 -0.490550 0.490550
									}
								}
							}
						}
					}
				}
				JOINT RightCollar
				{
					OFFSET 0 0 0
					CHANNELS 3 Zrotation Yrotation Xrotation
					JOINT RightShoulder
					{
						OFFSET -3.16460 1.32273 -0.23382
CHANNELS 3 Zrotation Xrotation Yrotation
						JOINT RightElbow
						{
OFFSET 0 -5.549670 0.033480
CHANNELS 3 Zrotation Xrotation Yrotation
							JOINT RightWrist
							{
OFFSET 0 -3.694010 0.000000
CHANNELS 3 Zrotation Xrotation Yrotation
								JOINT rhand
								{
									OFFSET 0 0 0
CHANNELS 3 Zrotation Xrotation Yrotation
									JOINT RFingers
									{
OFFSET 0 -0.638110 0.000000
CHANNELS 3 Zrotation Xrotation Yrotation
										End Site
										{
OFFSET 0 -0.514460 0.000000
										}
									}
								}
								JOINT RThumb
								{
OFFSET 0 0.000000 0.000000
CHANNELS 3 Zrotation Xrotation Yrotation
									End Site
									{
OFFSET 0 -0.522320 0.522320
									}
								}
							}
						}
					}
				}
			}
		}
	}
}
MOTION
Frames: 4
Frame Time: 0.008333333333333333
9.818074 18.545198 -1.956102 2.361659 -0.274455 5.100251 0.000000 0.000000 0.000000 -24.120990 -1.536354 -7.887349 0.915547 6.096648 17.065073 0.577566 -5.042154 -13.529272 0.317634 3.622767 10.017672 0.000000 0.000000 0.000000 9.996991 14.878559 -9.454409 -1.407421 -7.503987 21.217219 0.202064 -14.715939 -18.557656 -0.034540 1.176910 -3.235889 -4.783357 0.774808 -1.906122 -2.686095 1.207328 0.748374 -0.039673 0.562773 1.799509 -1.677340 -0.618131 -7.268708 1.424382 -0.991873 36.758010 0.737942 -0.484293 13.655786 0.000000 0.000000 0.000000 10.086096 -56.866861 -35.934209 30.197471 -41.062044 11.539177 54.486181 39.096677 -46.707081 0.000000 0.000000 0.000000 -7.125000 0.000000 0.000000 100.658503 -84.888597 105.741178 0.000000 0.000000 0.000000 0.961967 -56.494928 38.760513 -33.691995 -43.855153 -13.899228 -60.677222 -33.594644 -14.441207 0.000000 0.000000 0.000000 7.125000 0.000000 0.000000 -20.660279 3.686739 -20.709298
9.822850 18.541774 -1.933616 3.137796 -0.177423 4.988464 0.000000 0.000000 0.000000 -25.013659 -1.437968 -7.605299 0.902795 6.055157 16.944530 0.576541 -5.205283 -13.523724 0.328622 3.684397 10.190315 0.000000 0.000000 0.000000 9.104972 13.964118 -9.572862 -1.420148 -7.536347 21.314318 0.137715 -14.059335 -18.322253 -0.051994 1.471533 -4.047252 -5.405688 0.754147 -2.106999 -2.928185 1.217966 0.801117 0.061179 0.558398 1.960654 -1.295448 -0.566024 -7.043333 1.151780 -0.901316 36.582601 0.571889 -0.426640 13.520906 0.000000 0.000000 0.000000 10.074520 -56.738441 -35.808306 30.217595 -41.078943 11.552463 54.629632 38.841585 -46.827652 0.000000 0.000000 0.000000 -7.125000 0.000000 0.000000 102.704270 -84.863164 107.783051 0.000000 0.000000 0.000000 1.203704 -56.459721 38.772203 -33.583875 -43.773991 -13.824376 -60.959489 -33.644734 -14.477210 0.000000 0.000000 0.000000 7.125000 0.000000 0.000000 -20.802166 3.454496 -20.966753
9.799759 18.539243 -1.913244 3.248769 0.052529 4.569353 0.000000 0.000000 0.000000 -25.023619 -0.835055 -7.166826 0.888850 6.009418 16.811924 0.561149 -5.790472 -13.364955 0.337466 3.732909 10.326474 0.000000 0.000000 0.000000 9.238388 13.896887 -8.942954 -1.432912 -7.568538 21.411132 0.131010 -14.243073 -18.691094 -0.055296 1.516340 -4.170815 -5.749301 0.680859 -1.952222 -2.879177 1.124374 0.934992 0.297700 0.504144 2.008607 -1.037358 -0.444326 -6.772933 0.976993 -0.715745 36.369896 0.479745 -0.332665 13.360424 0.000000 0.000000 0.000000 10.304995 -56.236428 -35.951730 30.395069 -41.229508 11.669222 54.982020 40.415876 -46.769781 0.000000 0.000000 0.000000 -7.125000 0.000000 0.000000 103.860022 -84.692018 109.090524 0.000000 0.000000 0.000000 1.589603 -56.429779 39.092618 -33.475995 -43.692713 -13.749794 -60.658222 -32.546633 -13.987367 0.000000 0.000000 0.000000 7.125000 0.000000 0.000000 -20.783995 4.440843 -20.541188
9.780903 18.540500 -1.903941 2.869797 0.047501 4.508175 0.000000 0.000000 0.000000 -24.527066 -0.557237 -7.041117 0.862870 5.923265 16.562013 0.549248 -5.933781 -13.235977 0.348612 3.793752 10.497104 0.000000 0.000000 0.000000 9.770223 14.233202 -8.824536 -1.455037 -7.624353 21.578744 0.127574 -14.422503 -19.008971 -0.043815 1.350235 -3.712981 -5.536182 0.660243 -2.019351 -2.715168 1.092444 0.922588 0.347900 0.489562 2.035090 -1.025542 -0.318617 -6.528386 1.000710 -0.541763 36.155855 0.508323 -0.252211 13.209153 0.000000 0.000000 0.000000 10.311113 -56.295679 -35.733582 30.118257 -40.994431 11.487111 54.575307 40.416547 -46.719413 0.000000 0.000000 0.000000 -7.125000 0.000000 0.000000 101.271830 -84.855105 106.380813 0.000000 0.000000 0.000000 1.964804 -56.353850 39.560425 -33.424873 -43.654078 -13.714511 -60.020791 -31.097286 -13.330074 0.000000 0.000000 0.000000 7.125000 0.000000 0.000000 -20.632473 5.892621 -19.764303
